# xmcd CD database file
#
# Track frame offsets:
#	150
#	17123
#	35841
#	53026
#	69448
#	87787
#	102334
#	123031
#	140093
#	164101
#	181217
#	193907
#	210010
#	226677
#	245280
#	260920
#	277159
#	294625
#	308913
#	323943
#
# Disc length: 4531 seconds
#
# Revision: 3
# Processed by: cddbd v1.5.2PL0 Copyright (c) Steve Scherf et al.
# Submitted via: CDex 1.51
#
DISCID=2a11b114
DTITLE=Promo Only - Urban Radio June 06
DYEAR=2006
DGENRE=Hip Hop
TTITLE0=Kelly Rwland ft Da Brat - Gotsta Go 
TTITLE1=Lupe Fiasso - Kick Push 
TTITLE2=Jaheim - The Chosen One (Album Version)
TTITLE3=LL Cool J ft. Lyfe Jennings - Freeze
TTITLE4=Remy Ma ft. Ne-Yo - Feels So Good
TTITLE5=Paula Campbell - Won't Love You Back (Album Version)
TTITLE6=E-40 ft. Kanye West, Ice Cube, and Game - Tell Me When to Go (Remix)
TTITLE7=Busta Rhymes ft Kelis and Will.I.am - I Love My Chick 
TTITLE8=Busta Rhymes ft Swizz Beats - NY S**t
TTITLE9=Robin Thicke ft Busta Ryhmes and Pharrell Williams - Wanna Love You Girl (Remix) 
TTITLE10=Lloyd Banks ft 50 Cent - Cake
TTITLE11=T.I. - Why You Wanna
TTITLE12=Clipse ft. Pharrell - Mr. Me Too 
TTITLE13=Consequence ft John Legend - Waiting On You 
TTITLE14=Heather Small - Proud (US Radio Edit)
TTITLE15=Cam'ron ft Lil' Wayne - Touch it or Not
TTITLE16=Chingy ft Tyrese - Pullin' Me Back 
TTITLE17=DMX - Lord Give Me A Sign
TTITLE18=Keke Palmer - All My Girlz (Single Version)
TTITLE19=B.G. - Get Your Mind Right
EXTD=YEAR: 2006
EXTT0=
EXTT1=
EXTT2=
EXTT3=
EXTT4=
EXTT5=
EXTT6=
EXTT7=
EXTT8=
EXTT9=
EXTT10=
EXTT11=
EXTT12=
EXTT13=
EXTT14=
EXTT15=
EXTT16=
EXTT17=
EXTT18=
EXTT19=
PLAYORDER=
